<?xml version="1.0" standalone="no"?>
<!DOCTYPE svg PUBLIC "-//W3C//DTD SVG 20010904//EN"
 "http://www.w3.org/TR/2001/REC-SVG-20010904/DTD/svg10.dtd">
<svg version="1.0" xmlns="http://www.w3.org/2000/svg"
 width="1648.000000pt" height="757.000000pt" viewBox="0 0 1648.000000 757.000000"
 preserveAspectRatio="xMidYMid meet">

<g transform="translate(0.000000,757.000000) scale(0.100000,-0.100000)"
fill="#343d70" stroke="none">
<path d="M2712 5949 c-33 -39 -89 -59 -151 -53 -51 6 -60 4 -87 -19 -17 -14
-39 -44 -49 -67 -14 -30 -23 -39 -34 -34 -9 3 -29 10 -46 14 -16 4 -52 18 -79
30 -41 19 -52 20 -72 10 -13 -7 -28 -26 -33 -41 -13 -38 -30 -36 -81 6 -48 40
-94 47 -103 16 -3 -13 -17 -21 -46 -26 -34 -5 -41 -11 -41 -29 0 -16 -9 -24
-32 -31 -18 -6 -37 -19 -43 -30 -5 -11 -21 -37 -34 -58 -28 -46 -23 -100 12
-119 12 -6 27 -18 32 -25 9 -12 23 -12 75 -4 44 7 66 7 68 1 2 -6 16 -17 31
-25 16 -8 34 -27 40 -42 7 -15 39 -50 71 -78 44 -37 59 -57 60 -76 0 -14 9
-34 21 -45 11 -10 27 -34 35 -54 8 -19 27 -45 42 -56 23 -19 26 -29 26 -76 -1
-51 1 -57 27 -72 28 -16 33 -30 30 -68 -2 -18 43 -113 66 -140 12 -14 13 -22
2 -51 -11 -31 -10 -38 9 -62 12 -15 22 -32 22 -38 0 -6 10 -22 23 -35 l22 -25
-80 7 c-77 7 -126 15 -227 37 -42 10 -47 14 -53 45 -8 46 -58 101 -105 115
-42 13 -100 0 -134 -30 -70 -62 -57 -180 26 -231 65 -39 151 -16 194 52 13 21
26 38 29 38 3 0 47 -7 97 -15 51 -8 125 -20 163 -26 87 -14 135 -28 135 -39 0
-5 14 -25 30 -43 17 -19 30 -40 30 -46 0 -29 43 -92 81 -118 36 -25 41 -34 44
-74 2 -24 1 -50 -3 -56 -7 -10 -51 -39 -196 -128 l-60 -36 -38 17 c-49 22 -94
6 -114 -43 -30 -70 34 -136 108 -111 37 13 50 32 54 79 3 44 19 62 99 105 28
15 52 30 55 34 11 13 78 50 92 50 16 0 55 -40 81 -82 10 -16 23 -28 31 -28 7
0 21 -9 31 -20 10 -11 24 -20 31 -20 8 0 17 -12 20 -27 4 -16 12 -35 19 -43
15 -18 35 -76 35 -101 0 -27 156 -180 222 -218 64 -36 63 -34 83 -157 23 -139
24 -131 -70 -292 -5 -10 -23 -40 -39 -67 -36 -61 -41 -65 -82 -58 -112 18
-199 -106 -144 -205 25 -44 83 -82 126 -82 43 0 107 41 127 80 12 24 17 49 14
77 -4 38 -12 55 -52 109 -7 9 -6 20 1 31 6 10 37 63 68 118 75 131 82 137 107
106 10 -13 19 -34 19 -48 0 -13 8 -40 18 -61 44 -88 46 -128 16 -280 -4 -22
-1 -40 11 -58 22 -34 13 -113 -19 -169 -16 -27 -22 -50 -19 -71 4 -24 0 -34
-19 -46 -13 -9 -32 -35 -43 -58 -16 -36 -17 -46 -6 -73 17 -42 14 -108 -6
-154 -22 -50 -26 -148 -7 -184 8 -17 16 -73 20 -136 4 -84 12 -127 36 -195 35
-102 33 -148 -7 -166 -32 -15 -77 -103 -56 -110 8 -3 33 -22 56 -43 33 -30 44
-49 48 -80 6 -48 29 -76 71 -88 38 -10 56 2 56 38 1 57 37 74 103 46 48 -20
108 -19 154 3 48 21 55 31 49 63 -3 14 1 35 9 45 21 31 20 66 -3 111 -29 55
-28 65 11 83 22 11 33 23 35 41 3 22 10 28 37 33 21 4 42 17 52 33 21 30 53
62 82 83 16 12 24 33 32 95 6 44 15 83 18 88 4 4 34 14 66 22 32 9 78 24 101
34 36 17 43 24 49 59 4 27 1 52 -9 77 l-16 37 50 60 c73 88 68 138 -20 183
-17 9 -29 22 -26 28 25 60 28 88 16 132 -7 25 -17 48 -21 51 -5 3 -9 16 -9 30
0 17 5 24 20 24 10 0 33 18 51 40 31 38 35 40 86 40 l55 0 -7 -32 c-3 -18 -13
-57 -22 -85 -17 -52 -17 -53 7 -78 32 -35 83 -34 106 0 17 27 73 57 109 60 41
3 63 17 70 43 6 24 8 25 17 8 5 -10 25 -24 44 -32 22 -9 34 -21 34 -34 0 -10
15 -30 33 -44 65 -50 167 -22 167 45 0 24 4 29 25 29 20 0 31 -11 55 -53 36
-64 77 -92 115 -77 15 6 29 19 32 31 5 19 12 20 87 18 76 -3 86 -1 137 29 63
36 81 64 67 105 -7 19 -17 27 -33 27 -12 0 -36 7 -51 15 -16 8 -37 15 -47 15
-11 0 -24 16 -37 44 -10 24 -23 47 -29 51 -7 4 -9 20 -5 40 4 22 0 45 -11 68
-13 27 -14 40 -6 56 14 25 14 161 1 195 -6 16 -6 27 0 31 6 4 10 19 10 34 0
31 -45 81 -73 81 -10 0 -22 11 -27 24 -5 14 -18 30 -29 35 -25 14 -68 14 -76
1 -13 -22 -43 -10 -54 21 -13 39 -38 58 -73 59 -17 0 -29 7 -33 19 -3 11 -12
22 -20 25 -19 7 -19 50 -1 66 8 6 16 30 18 53 3 39 5 42 38 48 19 4 81 16 137
27 56 12 130 24 163 28 56 6 62 5 86 -20 45 -44 110 -32 139 25 15 28 15 33
-2 67 -35 73 -125 66 -157 -12 -13 -31 -20 -35 -73 -45 -32 -6 -80 -16 -108
-21 -124 -23 -218 -31 -244 -20 -24 10 -28 18 -38 93 -10 70 -9 84 4 99 13 14
14 32 9 95 -8 90 -26 139 -55 148 -21 6 -97 -11 -120 -29 -10 -8 -18 -3 -33
17 -11 15 -26 27 -33 27 -18 0 -30 24 -39 72 -4 23 -13 38 -24 40 -9 2 45 34
122 72 124 61 142 67 160 56 71 -45 115 -51 172 -24 95 45 106 169 21 237
-109 88 -261 -17 -224 -155 7 -27 4 -29 -133 -98 -135 -68 -180 -82 -180 -59
0 6 -8 9 -19 6 -14 -3 -21 4 -31 32 -11 34 -9 42 30 125 l42 88 -23 43 -23 44
21 23 c12 13 24 44 28 72 7 44 5 51 -15 66 l-23 17 20 29 c11 16 27 40 35 54
14 21 172 126 375 249 52 31 58 33 93 21 68 -23 118 18 106 85 -8 40 -30 55
-79 55 -42 0 -67 -26 -67 -68 0 -34 -25 -63 -75 -89 -28 -15 -63 -36 -220
-138 -102 -67 -144 -87 -167 -79 -32 10 -55 43 -68 96 -14 56 -21 63 -82 76
-37 7 -50 7 -59 -4 -8 -9 -16 -11 -29 -4 -20 11 -30 4 -30 -21 0 -16 -2 -17
-27 -3 -16 7 -38 14 -50 14 -35 0 -64 65 -57 127 6 43 3 53 -21 81 l-27 32 24
28 c37 43 79 91 129 145 l46 50 45 -12 c59 -17 105 -7 145 32 74 70 64 174
-22 227 -119 74 -259 -59 -200 -190 21 -46 25 -38 -95 -175 -46 -52 -94 -98
-107 -101 -41 -11 -104 4 -199 47 -53 24 -78 24 -114 -2 -28 -21 -29 -21 -69
-3 -35 16 -41 24 -41 50 0 17 -9 43 -21 58 -17 22 -29 26 -68 26 -35 0 -53 -5
-66 -20 -19 -21 -45 -27 -45 -10 0 20 -49 60 -73 60 -18 0 -28 8 -37 30 -17
40 -41 52 -119 59 l-64 6 -13 40 c-15 44 -86 114 -142 141 -24 11 -48 14 -80
10 -96 -12 -95 -12 -101 12 -7 25 -56 62 -84 62 -9 0 -25 -9 -35 -21z m66
-129 c11 0 25 -6 31 -14 21 -25 63 -26 105 -3 l39 22 16 -24 c33 -49 161 -294
156 -299 -7 -7 -105 18 -275 68 -69 21 -170 50 -225 65 -55 15 -106 33 -113
40 -23 21 -25 77 -3 113 24 37 36 40 51 12 14 -26 61 -26 85 0 23 25 74 40 97
29 9 -5 25 -9 36 -9z m269 -58 c6 -4 19 -30 28 -57 22 -64 47 -84 108 -85 64
0 69 -18 22 -75 -20 -25 -40 -45 -44 -45 -6 0 -141 251 -141 264 0 8 12 7 27
-2z m-690 -67 c19 -6 5 -32 -20 -38 -12 -2 -84 -21 -161 -41 -160 -42 -182
-44 -170 -18 4 9 7 38 6 65 -2 43 -1 47 20 47 13 0 34 -9 48 -20 38 -30 130
-28 166 4 28 23 43 23 111 1z m41 -83 c2 -13 -3 -41 -12 -62 -8 -21 -27 -81
-41 -131 -37 -130 -50 -160 -69 -153 -11 4 -16 19 -16 43 0 21 -7 46 -15 57
-8 10 -15 27 -15 37 0 11 -12 22 -29 28 -16 6 -31 19 -34 30 -3 10 -24 27 -49
38 -45 19 -76 47 -64 58 13 14 273 81 306 80 28 -2 36 -6 38 -25z m196 13 c28
-8 114 -33 191 -56 268 -78 345 -102 345 -110 0 -15 -180 -219 -193 -219 -7 0
-40 26 -74 58 -187 174 -348 327 -351 334 -5 12 26 10 82 -7z m-37 -65 c32
-30 127 -120 211 -199 83 -79 152 -146 152 -150 0 -6 -143 -176 -179 -214 -15
-15 -22 -16 -42 -7 -19 9 -31 30 -51 93 -15 45 -60 181 -101 302 -41 121 -73
224 -70 228 8 13 18 6 80 -53z m-47 -125 c28 -82 63 -190 79 -240 16 -49 38
-114 50 -143 11 -29 21 -55 21 -57 0 -3 -11 -11 -24 -20 -22 -14 -29 -13 -122
25 -54 22 -102 44 -107 49 -5 5 -11 36 -14 69 -5 54 -9 62 -33 72 -44 18 -49
43 -24 134 20 78 81 262 91 279 12 20 35 -27 83 -168z m730 85 c0 -20 -25 -38
-37 -26 -5 5 24 46 34 46 1 0 3 -9 3 -20z m150 -38 c0 -12 55 -42 77 -42 11 0
34 11 53 25 18 13 37 22 41 19 17 -10 8 -35 -16 -44 -26 -10 -31 -37 -16 -90
6 -22 12 -25 56 -25 42 0 50 -3 53 -20 2 -11 13 -30 25 -42 11 -13 18 -23 14
-23 -7 0 -309 141 -407 190 -59 30 -63 34 -42 41 14 6 31 5 43 -1 21 -12 86
-4 95 11 6 11 24 12 24 1z m-186 -134 c70 -148 146 -318 146 -328 0 -14 -24
-12 -100 8 -79 21 -90 28 -90 53 0 10 -10 29 -21 40 -17 17 -30 20 -60 16 -34
-4 -42 -1 -78 35 -31 29 -39 44 -32 55 15 27 175 213 184 213 4 0 27 -42 51
-92z m55 68 c53 -29 332 -163 439 -212 71 -32 73 -35 70 -66 -4 -38 -16 -44
-233 -102 -114 -31 -140 -35 -151 -24 -7 7 -42 78 -77 158 -36 80 -76 171 -91
202 -14 31 -26 59 -26 62 0 12 23 5 69 -18z m639 -72 c12 -8 22 -19 22 -24 0
-6 19 -10 43 -10 23 0 58 -3 78 -6 l37 -6 -4 -53 c-3 -42 0 -55 16 -70 11 -10
20 -24 20 -30 0 -7 20 -33 44 -59 38 -41 47 -46 64 -37 16 8 25 6 44 -9 13
-10 41 -20 62 -22 l37 -3 -52 -100 c-28 -55 -55 -104 -60 -109 -15 -16 -45 6
-174 132 -107 104 -125 126 -119 145 28 89 -48 162 -127 123 -38 -19 -50 -20
-84 -4 -32 15 -31 20 7 38 26 12 36 26 51 73 18 55 21 58 46 52 14 -3 36 -13
49 -21z m-906 -191 c29 -28 38 -45 38 -70 0 -19 -6 -35 -12 -37 -7 -2 -64 -20
-126 -40 -121 -39 -132 -41 -132 -27 0 14 171 211 183 211 6 0 28 -17 49 -37z
m791 -87 c3 -16 -198 -146 -226 -146 -16 0 -117 48 -117 55 0 9 79 37 195 70
121 34 144 37 148 21z m293 -154 c93 -88 125 -125 116 -131 -8 -4 -55 -11
-105 -14 -51 -4 -101 -9 -113 -13 -14 -4 -31 3 -53 22 -30 25 -35 26 -69 15
-32 -11 -43 -10 -82 8 -83 37 -165 87 -167 102 -2 8 16 25 39 39 23 14 65 41
94 60 50 34 57 36 132 35 l80 -1 128 -122z m-1036 107 c0 -6 -25 -55 -55 -109
-53 -94 -56 -98 -95 -104 -39 -6 -43 -4 -91 44 -68 68 -65 89 16 113 33 10 92
29 130 41 83 28 95 30 95 15z m309 -40 c91 -25 171 -64 171 -84 0 -9 -11 -20
-24 -27 -20 -8 -32 -7 -60 6 -39 19 -64 20 -101 6 -25 -9 -32 -5 -96 57 -85
82 -89 97 -16 76 28 -8 85 -23 126 -34z m1091 -15 c16 -36 17 -49 8 -70 -10
-20 -8 -31 11 -65 19 -34 21 -42 9 -56 -7 -9 -14 -46 -16 -87 -6 -171 -5 -170
-60 -185 -21 -7 -34 -6 -40 2 -16 20 -92 237 -92 261 0 13 18 56 40 96 22 40
40 74 40 77 0 2 11 21 25 43 30 48 48 44 75 -16z m-1221 -28 l73 -74 -16 -44
-17 -44 -135 -13 c-142 -14 -156 -11 -169 29 -3 11 16 56 52 119 l58 101 40 0
c37 0 47 -6 114 -74z m-671 31 c51 -17 62 -25 62 -43 0 -18 -9 -24 -48 -33
-67 -17 -90 -34 -32 -25 25 3 53 10 62 15 11 6 29 4 51 -7 28 -13 41 -14 66
-6 29 10 34 8 81 -35 42 -39 49 -50 48 -81 -1 -28 5 -41 30 -62 28 -23 32 -33
42 -114 6 -51 7 -93 2 -98 -5 -5 -30 -4 -58 1 -27 5 -91 17 -142 27 -74 13
-95 21 -104 38 -5 11 -26 38 -46 58 -31 33 -35 43 -36 97 -1 43 -8 68 -22 88
-12 16 -23 47 -27 71 -3 24 -12 51 -21 61 -16 18 -22 62 -9 75 4 3 14 4 22 0
9 -3 44 -15 79 -27z m1057 -103 c17 -9 59 -31 95 -49 36 -19 74 -40 85 -49 19
-14 16 -15 -45 -15 -36 0 -103 6 -150 13 -80 11 -85 13 -95 40 -8 25 -6 31 18
52 33 28 51 30 92 8z m-330 -144 c18 -36 19 -35 -54 -120 -60 -70 -72 -81 -83
-77 -18 5 -178 171 -178 184 0 19 10 22 145 31 66 5 128 10 137 11 10 0 24
-12 33 -29z m428 12 c94 -7 99 -8 115 -35 16 -26 16 -29 -2 -60 -10 -18 -59
-106 -109 -197 -49 -91 -99 -182 -111 -204 -20 -37 -23 -39 -76 -40 -30 -1
-62 -5 -71 -9 -11 -6 -30 12 -75 75 -32 46 -92 114 -131 153 -40 38 -73 75
-73 83 0 10 69 98 130 165 4 5 26 3 49 -4 36 -11 47 -10 76 4 19 9 42 29 52
44 24 39 28 40 81 36 26 -3 91 -7 145 -11z m534 6 c5 -7 23 -51 40 -98 59
-160 58 -157 44 -174 -20 -24 -33 -20 -103 32 -36 26 -100 72 -143 102 -157
111 -166 125 -82 134 28 3 66 8 82 9 75 9 153 6 162 -5z m-1203 -147 c47 -46
86 -89 86 -95 0 -7 -26 -42 -57 -79 -55 -64 -88 -82 -98 -54 -6 17 -45 275
-45 299 0 32 24 17 114 -71z m1067 -32 c93 -67 171 -125 174 -129 3 -4 2 -28
-1 -53 -7 -50 -3 -47 -158 -106 l-79 -30 -26 20 c-14 11 -36 28 -49 37 -20 15
-25 35 -44 184 -20 164 -20 198 2 198 6 0 87 -54 181 -121z m-210 -5 c9 -54
19 -133 23 -176 l7 -76 -32 -22 c-17 -13 -39 -42 -50 -66 -10 -24 -22 -44 -26
-44 -4 0 -39 -9 -78 -20 -92 -26 -109 -25 -129 5 -19 29 -25 15 64 175 57 103
124 227 148 275 40 80 53 72 73 -51z m-1081 -85 c47 -6 92 -15 101 -20 9 -4
19 -27 23 -50 5 -34 3 -46 -13 -63 -11 -12 -23 -33 -26 -49 -7 -28 -31 -47
-59 -47 -12 0 -16 10 -16 34 0 41 -48 96 -83 96 -17 0 -28 12 -46 49 -25 54
-21 76 13 67 11 -3 59 -11 106 -17z m407 -51 c30 -29 82 -88 116 -132 99 -125
92 -111 73 -154 -10 -22 -15 -56 -14 -86 l3 -50 -85 -63 c-47 -35 -101 -76
-120 -92 -72 -57 -75 -58 -107 -25 -16 16 -44 67 -62 113 -41 107 -76 162 -96
155 -25 -10 -67 24 -63 51 2 15 -5 30 -17 40 -20 15 -20 15 10 40 31 26 59 32
70 15 7 -12 55 -13 71 -2 21 14 34 50 28 79 -5 25 3 39 51 96 32 37 64 67 73
67 8 0 40 -24 69 -52z m1099 -133 c20 -14 48 -25 61 -25 28 0 38 -21 47 -105
4 -33 14 -95 22 -139 20 -109 19 -146 -4 -146 -10 0 -61 30 -113 67 -52 36
-137 95 -189 131 -52 36 -97 67 -100 69 -5 4 -1 75 4 81 6 5 220 92 228 92 4
0 24 -11 44 -25z m164 -65 c5 0 11 -13 15 -30 7 -32 14 -37 32 -19 8 8 15 3
27 -19 10 -19 25 -31 44 -35 21 -4 33 -15 42 -39 8 -18 20 -37 27 -41 23 -14
22 -19 -59 -239 -5 -16 -16 -28 -24 -28 -16 0 -34 31 -34 59 0 11 -15 31 -32
45 -32 25 -34 30 -59 183 -14 87 -24 162 -21 166 2 5 11 6 19 3 8 -3 18 -6 23
-6z m-615 -95 c30 -31 31 -44 6 -93 -10 -20 -28 -67 -40 -104 -21 -64 -24 -68
-52 -68 -17 0 -39 -5 -49 -10 -16 -8 -25 -3 -57 36 -21 26 -46 54 -55 63 -22
19 -22 39 -3 65 8 11 15 34 15 52 0 40 4 43 99 64 103 24 106 24 136 -5z m201
-27 c28 -23 41 -32 243 -168 86 -58 110 -80 109 -95 -3 -18 -13 -21 -93 -27
-49 -3 -144 -11 -210 -17 -66 -6 -145 -11 -176 -11 -53 0 -58 2 -83 34 -14 19
-26 41 -26 49 0 15 18 63 50 133 11 23 22 54 26 68 4 18 13 26 28 26 11 0 32
7 46 14 36 20 54 19 86 -6z m755 -76 c-20 -16 -20 -19 -5 -86 8 -38 11 -73 7
-77 -5 -4 -26 -9 -48 -11 -39 -3 -40 -4 -37 -38 2 -23 12 -41 28 -54 26 -19
96 -155 88 -168 -3 -4 -12 -8 -20 -8 -23 0 -17 -45 11 -78 17 -20 31 -28 44
-25 13 3 23 -2 30 -16 9 -15 21 -21 47 -21 31 0 37 -4 50 -35 17 -42 46 -55
100 -48 36 4 41 2 58 -29 11 -18 32 -46 48 -61 26 -26 28 -35 28 -102 0 -44
-5 -77 -11 -81 -8 -4 -9 -25 -5 -60 3 -30 3 -54 -1 -54 -5 0 -21 9 -38 20 -16
11 -47 20 -67 20 -35 0 -47 9 -163 126 l-124 127 6 57 c7 74 -11 111 -71 140
-50 24 -51 27 -62 151 l-6 75 -44 27 c-26 16 -44 34 -44 44 1 10 20 72 43 137
l42 120 55 12 c30 7 59 20 65 28 9 15 10 15 13 1 2 -9 -6 -23 -17 -33z m-1375
-56 c3 -7 -22 -71 -55 -142 -64 -139 -65 -140 -150 -143 -26 -1 -41 7 -72 38
-22 21 -39 43 -39 47 1 15 274 214 293 214 10 0 20 -6 23 -14z m221 -104 c21
-26 24 -37 16 -51 -6 -9 -14 -31 -17 -49 -9 -39 -8 -38 -98 -61 -40 -11 -99
-27 -131 -37 -53 -16 -59 -16 -74 -1 -15 15 -13 24 25 109 81 179 83 183 132
185 24 2 46 6 49 9 6 5 43 -34 98 -104z m767 -84 c11 -19 3 -38 -102 -233 -26
-49 -61 -115 -77 -145 -53 -100 -62 -110 -103 -110 -34 1 -41 6 -92 77 -30 42
-90 124 -132 182 -43 58 -78 108 -78 113 0 4 8 24 17 45 10 21 18 39 18 40 1
2 273 30 440 46 68 7 98 3 109 -15z m126 -23 c7 -8 10 -20 7 -27 -9 -21 -288
-360 -293 -355 -6 6 13 46 93 197 88 165 92 170 134 185 46 17 45 17 59 0z
m97 -61 c25 -19 33 -32 33 -58 0 -18 5 -59 11 -92 10 -53 9 -60 -7 -69 -51
-29 -85 -71 -92 -115 l-7 -45 -60 -11 c-129 -24 -296 -47 -302 -41 -12 13 351
457 374 457 9 0 31 -11 50 -26z m-949 -24 c35 -33 42 -78 21 -138 -9 -28 -54
-62 -81 -62 -14 0 -178 81 -178 88 0 4 13 29 28 56 22 38 38 53 73 67 64 26
98 23 137 -11z m-218 -26 c0 -4 -10 -22 -21 -41 -18 -29 -26 -34 -48 -28 -35
8 -52 27 -42 43 12 19 111 42 111 26z m473 -176 c75 -100 134 -185 131 -189
-4 -8 -64 16 -231 92 -40 18 -73 38 -73 44 0 7 -11 32 -24 57 -20 38 -22 51
-15 94 4 27 8 54 8 61 1 11 20 20 53 22 10 1 65 -65 151 -181z m-556 87 l22
-16 -21 -44 c-19 -39 -47 -61 -48 -37 -1 4 -5 27 -10 52 -4 25 -6 48 -4 52 8
13 38 9 61 -7z m141 -62 c45 -20 79 -40 75 -44 -4 -4 -54 -11 -110 -15 -95 -6
-103 -5 -103 11 0 19 37 85 48 85 4 0 44 -16 90 -37z m117 -99 c16 -24 15 -28
-9 -87 -46 -115 -104 -252 -133 -314 l-28 -62 0 62 c0 47 -8 81 -33 140 -17
43 -32 89 -32 103 0 13 -14 50 -32 80 -43 77 -35 87 68 95 173 12 180 11 199
-17z m202 -45 c228 -103 222 -100 229 -135 7 -41 5 -46 -84 -139 -99 -105
-121 -98 -173 52 -12 32 -36 90 -54 129 -63 134 -48 152 82 93z m-140 -1 c6
-7 18 -38 28 -68 9 -30 23 -64 30 -75 6 -11 27 -60 45 -108 32 -86 33 -90 17
-117 -10 -15 -17 -40 -17 -53 0 -20 -18 -40 -82 -91 -184 -145 -253 -194 -261
-187 -5 5 -2 25 7 44 17 41 12 102 -11 129 -17 19 -9 76 11 84 18 7 113 216
174 382 26 71 40 84 59 60z m902 -82 c13 -14 35 -30 51 -36 l27 -11 7 -137 c7
-123 6 -138 -10 -149 -10 -7 -24 -13 -33 -13 -22 0 -441 283 -441 298 0 17 4
18 175 46 194 31 197 31 224 2z m308 -128 c62 -62 113 -117 113 -121 0 -5 11
-22 25 -39 14 -17 25 -42 25 -59 0 -34 39 -64 71 -56 14 4 35 -3 58 -19 19
-13 41 -24 47 -24 7 0 24 -19 37 -43 14 -24 33 -49 41 -57 9 -7 16 -16 16 -21
0 -13 -54 -11 -84 2 -20 10 -29 8 -56 -11 -38 -27 -56 -16 -71 46 -12 48 -66
104 -99 104 -10 0 -26 -10 -35 -22 -8 -13 -30 -28 -48 -34 -30 -10 -32 -14
-35 -62 -4 -62 -17 -67 -32 -13 -7 28 -18 42 -40 51 -27 11 -68 66 -96 131 -7
15 -17 30 -23 33 -7 5 -11 57 -11 150 l0 142 33 17 c17 8 36 16 42 16 5 1 60
-50 122 -111z m-501 -94 c113 -75 203 -141 201 -148 -4 -13 -70 -9 -75 4 -2 5
-13 21 -24 36 -19 23 -26 26 -62 21 -28 -4 -48 -14 -63 -33 -21 -27 -22 -27
-114 -21 -56 4 -97 11 -104 19 -8 8 -15 56 -18 121 -5 101 -4 108 16 122 12 8
25 15 30 15 5 0 101 -61 213 -136z m-282 94 c10 -38 7 -216 -4 -220 -5 -1 -46
-1 -91 2 -92 6 -111 19 -94 64 13 32 151 176 169 176 8 0 16 -10 20 -22z m31
-260 c17 -9 38 -25 49 -37 18 -20 18 -21 -13 -38 -66 -37 -64 -33 -51 -98 7
-33 19 -70 27 -82 27 -41 -3 -24 -43 24 -21 26 -74 88 -116 138 -43 49 -78 96
-78 104 0 19 183 10 225 -11z m85 -8 c0 -11 -4 -20 -9 -20 -13 0 -32 26 -24
33 13 14 33 6 33 -13z m-386 1 c26 -10 121 -288 105 -308 -8 -9 -39 -13 -103
-13 -50 0 -163 -7 -250 -15 -88 -8 -163 -12 -167 -9 -15 9 -21 65 -9 79 7 8
15 13 19 11 8 -5 53 28 291 213 65 51 79 56 114 42z m750 -8 c3 -4 -8 -12 -26
-18 -32 -10 -53 -2 -42 17 6 10 58 11 68 1z m-633 -65 c54 -63 62 -72 138
-161 22 -27 41 -52 41 -56 0 -20 -142 -28 -158 -8 -5 6 -22 54 -37 106 -15 52
-34 109 -41 128 -31 73 -12 70 57 -9z m173 -286 c-5 -32 -2 -43 21 -70 19 -23
28 -47 32 -86 5 -48 3 -55 -16 -66 -12 -6 -26 -23 -32 -37 -8 -21 -12 -23 -24
-13 -11 9 -13 23 -9 50 6 34 3 40 -30 65 -29 22 -40 41 -57 96 -12 38 -18 76
-15 84 4 11 22 15 71 15 l65 0 -6 -38z m-161 1 c7 -16 22 -53 32 -84 17 -52
17 -58 2 -73 -8 -9 -23 -16 -31 -16 -9 0 -89 25 -178 56 -90 30 -183 61 -208
69 -99 29 -99 31 -19 43 80 13 252 28 336 31 48 1 54 -1 66 -26z m-526 -24
c15 -6 51 -17 78 -25 28 -7 122 -38 210 -69 88 -30 174 -60 192 -66 36 -11 51
-27 31 -33 -33 -10 -308 -57 -438 -76 -80 -11 -155 -23 -167 -26 -18 -3 -23 0
-23 16 0 12 5 30 10 40 9 16 11 57 8 162 -1 16 10 38 28 57 33 35 33 35 71 20z
m787 -108 c3 -5 -1 -14 -9 -21 -13 -10 -15 -9 -15 9 0 21 14 28 24 12z m-225
-135 c20 -21 21 -30 15 -90 -7 -66 -8 -68 -43 -84 -60 -27 -71 -41 -71 -88 0
-24 -4 -46 -10 -49 -5 -3 -40 6 -77 20 -38 15 -81 31 -98 37 -16 6 -43 17 -60
24 -16 7 -61 24 -100 39 -139 53 -156 60 -176 78 -24 22 -25 47 -1 47 9 0 82
11 162 25 438 75 428 74 459 41z m115 -50 c20 -24 36 -51 36 -59 0 -16 -67
-47 -102 -47 -20 0 -21 3 -15 65 10 102 24 110 81 41z m-794 -49 c0 -16 9 -28
27 -36 31 -14 41 -25 212 -235 117 -143 132 -168 111 -181 -5 -3 -10 -19 -10
-35 0 -24 -10 -37 -52 -68 -93 -67 -324 -164 -246 -102 20 15 27 31 30 72 7
67 -14 192 -36 213 -18 18 -19 23 -21 110 -1 33 -7 89 -14 125 -15 84 -20 160
-9 160 4 0 8 -11 8 -23z m199 -98 c9 -5 87 -36 173 -69 234 -88 252 -101 186
-131 -20 -8 -39 -27 -47 -46 -12 -27 -20 -33 -46 -33 -17 0 -35 -4 -40 -9 -6
-5 -23 -7 -40 -4 -24 4 -52 32 -137 137 -59 72 -115 142 -124 155 l-17 24 38
-7 c20 -4 45 -12 54 -17z m72 -566 c4 -27 12 -60 19 -73 12 -22 11 -22 -16
-16 -61 15 -154 18 -169 6 -20 -16 -35 -4 -35 29 0 25 8 32 88 69 48 22 92 40
97 38 6 -1 13 -25 16 -53z"/>
<path d="M13249 4993 c-242 -3 -309 -6 -318 -17 -8 -9 -10 -305 -9 -1072 l3
-1059 580 -3 c483 -2 601 0 707 13 415 52 669 229 792 552 79 208 101 471 65
768 -48 386 -251 632 -614 743 -55 17 -147 38 -205 46 -117 18 -478 37 -610
34 -47 -2 -223 -4 -391 -5z m826 -433 c136 -16 233 -39 302 -72 69 -33 148
-110 181 -174 104 -204 106 -604 5 -810 -41 -84 -86 -129 -166 -169 -151 -73
-265 -87 -702 -83 l-330 3 -3 654 c-2 517 1 657 10 664 17 11 585 1 703 -13z"/>
<path d="M4826 4969 c-37 -29 -37 -90 0 -124 37 -35 78 -33 116 5 26 27 30 36
25 68 -11 68 -85 95 -141 51z"/>
<path d="M6833 4978 c-15 -18 -59 -101 -238 -453 -87 -170 -186 -364 -220
-430 -34 -66 -113 -219 -175 -340 -134 -261 -273 -533 -381 -742 -44 -83 -79
-157 -79 -162 0 -16 466 -15 477 1 4 7 64 118 133 248 l126 235 496 3 497 2
18 -27 c11 -16 40 -68 66 -118 25 -49 77 -148 116 -220 l69 -130 229 -3 c125
-1 233 0 241 3 9 3 -21 70 -101 227 -63 123 -170 331 -237 463 -67 132 -157
308 -200 390 -42 83 -163 319 -268 525 -105 206 -210 411 -234 455 l-43 80
-141 3 c-105 2 -144 -1 -151 -10z m292 -941 c74 -146 135 -271 135 -277 0 -7
-94 -10 -285 -10 -157 0 -285 2 -285 5 0 3 63 132 141 286 86 173 144 278 150
272 5 -5 70 -129 144 -276z"/>
<path d="M8322 4982 c-10 -7 -12 -228 -10 -1073 l3 -1064 215 0 215 0 3 688
c2 756 -1 722 62 650 18 -21 112 -121 209 -223 97 -102 262 -275 366 -385 105
-110 304 -320 444 -467 l254 -268 188 0 189 0 -2 1073 -3 1072 -195 3 c-107 1
-205 0 -217 -3 l-23 -5 0 -718 -1 -717 -92 96 c-100 103 -181 189 -841 887
l-437 462 -157 0 c-86 0 -163 -4 -170 -8z"/>
<path d="M10943 4980 c-105 -16 -192 -81 -223 -167 -12 -31 -15 -192 -18 -871
-2 -729 -1 -841 13 -895 22 -89 58 -136 130 -172 l60 -30 750 -3 c674 -3 756
-1 813 14 84 22 143 69 179 141 l28 58 0 280 0 280 -45 11 c-44 12 -105 28
-281 78 -64 18 -90 21 -98 13 -7 -7 -11 -86 -11 -239 l0 -228 -547 2 -548 3 0
660 0 660 545 0 545 0 3 -225 c1 -123 6 -228 11 -233 8 -8 186 24 371 66 l55
13 0 284 c0 249 -2 291 -18 337 -23 65 -75 116 -147 146 -55 22 -55 22 -785
23 -401 1 -753 -1 -782 -6z"/>
<path d="M2825 3625 c-36 -35 -35 -96 1 -124 40 -31 87 -28 118 10 34 40 33
74 -3 110 -38 37 -82 39 -116 4z"/>
</g>
</svg>
