<?xml version="1.0" standalone="no"?>
<!DOCTYPE svg PUBLIC "-//W3C//DTD SVG 20010904//EN"
 "http://www.w3.org/TR/2001/REC-SVG-20010904/DTD/svg10.dtd">
<svg version="1.0" xmlns="http://www.w3.org/2000/svg"
 width="250.000000pt" height="122.000000pt" viewBox="0 0 250.000000 122.000000"
 preserveAspectRatio="xMidYMid meet">

<g transform="translate(0.000000,122.000000) scale(0.100000,-0.100000)"
fill="#000000" stroke="none">
<path d="M165 1130 c-11 -5 -40 -9 -66 -9 -25 -1 -50 -6 -57 -13 -18 -18 -15
-48 6 -48 24 0 57 -36 78 -85 19 -46 129 -192 155 -205 9 -6 25 -33 35 -62 14
-44 15 -61 6 -113 -8 -41 -9 -72 -2 -95 5 -19 7 -43 4 -53 -8 -26 23 -59 45
-47 9 5 24 11 34 14 9 3 17 15 17 28 1 23 41 78 58 78 15 0 22 41 15 83 -6 40
2 47 22 20 11 -14 16 -15 28 -4 11 8 22 9 34 3 16 -8 31 -8 101 -4 25 2 30 27
7 36 -9 3 -15 18 -15 35 0 17 -6 35 -12 41 -7 5 -23 18 -36 28 -14 11 -25 33
-30 62 -6 33 -13 46 -27 48 -35 7 -45 23 -45 76 0 56 -12 76 -45 76 -11 0 -26
9 -33 20 -7 11 -19 20 -27 20 -24 0 -138 40 -155 55 -21 18 -71 26 -95 15z
m59 -30 c14 -5 28 -20 32 -34 5 -21 11 -24 32 -20 20 4 35 -2 60 -25 31 -29
62 -41 62 -23 0 4 -5 13 -12 20 -9 9 -9 12 2 12 8 0 35 -18 60 -39 l45 -39
-24 -33 -24 -32 24 -18 c13 -10 36 -23 50 -29 35 -15 44 -71 16 -95 -17 -15
-18 -18 -4 -32 17 -17 37 -10 37 13 0 17 2 17 35 2 28 -13 30 -22 12 -61 -14
-31 -33 -34 -58 -11 -14 12 -26 14 -61 7 -43 -9 -43 -9 -43 -51 0 -34 -3 -42
-19 -42 -15 0 -16 -3 -7 -14 13 -15 -3 -50 -41 -88 -10 -10 -18 -25 -18 -34 0
-24 -23 -11 -31 17 -9 33 -9 130 0 153 4 11 4 38 -2 60 -5 23 -11 57 -14 77
-4 27 -11 38 -33 46 -39 15 -67 58 -50 78 11 14 7 19 -13 16 -17 -3 -48 21
-62 49 -15 28 -14 29 13 32 32 4 27 23 -6 23 -24 1 -91 68 -92 93 0 14 26 16
35 2 10 -17 32 -11 38 10 6 22 23 25 61 10z"/>
<path d="M240 996 c0 -9 7 -16 16 -16 9 0 14 5 12 12 -6 18 -28 21 -28 4z"/>
<path d="M297 983 c-4 -3 -7 -17 -7 -30 0 -16 6 -23 20 -23 25 0 36 25 20 45
-14 16 -23 19 -33 8z"/>
<path d="M212 948 c3 -7 13 -15 22 -16 12 -3 17 1 14 10 -3 7 -13 15 -22 16
-12 3 -17 -1 -14 -10z"/>
<path d="M382 934 c9 -9 21 -13 27 -9 16 10 3 25 -22 25 -20 0 -20 -1 -5 -16z"/>
<path d="M395 870 c-8 -13 3 -30 20 -30 19 0 26 27 9 34 -21 8 -22 8 -29 -4z"/>
<path d="M320 835 c0 -27 1 -28 24 -19 24 9 20 44 -4 44 -15 0 -20 -7 -20 -25z"/>
<path d="M367 796 c-7 -18 11 -36 29 -29 21 8 17 43 -5 43 -10 0 -21 -6 -24
-14z"/>
<path d="M492 798 c5 -15 37 -18 41 -3 1 6 -9 12 -22 13 -16 3 -22 -1 -19 -10z"/>
<path d="M365 741 c-7 -12 12 -24 25 -16 11 7 4 25 -10 25 -5 0 -11 -4 -15 -9z"/>
<path d="M461 729 c-18 -15 -21 -23 -13 -31 15 -15 46 12 40 35 -2 13 -7 13
-27 -4z"/>
<path d="M407 664 c-8 -8 1 -24 14 -24 5 0 9 7 9 15 0 15 -12 20 -23 9z"/>
<path d="M460 1110 c0 -16 5 -21 23 -18 12 2 22 10 22 18 0 8 -10 16 -22 18
-18 3 -23 -2 -23 -18z"/>
<path d="M590 1040 c0 -5 7 -10 15 -10 8 0 15 5 15 10 0 6 -7 10 -15 10 -8 0
-15 -4 -15 -10z"/>
<path d="M1982 1012 c-11 -7 -11 -38 0 -173 l13 -164 94 -3 c182 -5 260 32
275 130 13 86 -20 160 -87 195 -34 17 -274 30 -295 15z m275 -96 c18 -21 23
-39 23 -81 0 -71 -21 -87 -129 -93 l-78 -4 -7 96 c-4 53 -4 101 0 107 4 8 34
10 87 7 72 -4 83 -8 104 -32z"/>
<path d="M1467 1003 c-3 -4 -2 -52 2 -106 3 -54 4 -100 2 -102 -5 -5 -73 52
-166 139 -58 54 -76 66 -104 66 l-34 0 7 -147 c9 -194 9 -195 55 -191 l36 3
-4 104 -4 105 40 -35 c22 -19 76 -67 121 -106 64 -57 89 -73 112 -73 17 0 33
6 35 13 3 6 -1 84 -8 172 l-12 160 -37 3 c-20 2 -38 -1 -41 -5z"/>
<path d="M1602 998 c-22 -22 -9 -295 16 -320 15 -15 300 -12 319 4 7 6 13 31
13 59 0 51 -15 69 -59 69 -17 0 -21 -6 -21 -34 0 -30 -4 -34 -31 -40 -44 -8
-147 -8 -152 2 -2 4 -8 51 -11 105 l-7 98 93 -3 93 -3 3 -28 c4 -34 19 -41 57
-27 26 10 27 13 23 61 -3 28 -12 55 -19 60 -22 14 -303 11 -317 -3z"/>
<path d="M903 988 c-26 -41 -161 -323 -157 -330 3 -4 21 -8 39 -8 30 0 37 5
55 40 l20 40 91 0 90 0 20 -35 c19 -32 25 -35 66 -35 l45 0 -25 43 c-14 23
-40 66 -59 95 -18 28 -54 85 -81 127 -38 60 -52 75 -71 75 -14 0 -28 -6 -33
-12z m62 -138 c22 -42 19 -50 -20 -50 -38 0 -43 11 -23 55 15 33 24 32 43 -5z"/>
<path d="M560 981 c0 -6 5 -13 10 -16 6 -3 10 1 10 9 0 9 -4 16 -10 16 -5 0
-10 -4 -10 -9z"/>
<path d="M52 928 c2 -15 10 -23 23 -23 30 0 27 39 -3 43 -20 3 -23 0 -20 -20z"/>
<path d="M574 935 c-4 -9 -2 -21 4 -27 15 -15 44 -1 40 19 -4 23 -36 29 -44 8z"/>
<path d="M130 820 c0 -5 7 -10 15 -10 8 0 15 5 15 10 0 6 -7 10 -15 10 -8 0
-15 -4 -15 -10z"/>
<path d="M672 809 c2 -6 8 -10 13 -10 5 0 11 4 13 10 2 6 -4 11 -13 11 -9 0
-15 -5 -13 -11z"/>
<path d="M226 773 c-11 -11 -6 -23 9 -23 8 0 15 4 15 9 0 13 -16 22 -24 14z"/>
<path d="M253 664 c-3 -8 -1 -20 5 -26 15 -15 43 8 35 28 -7 19 -32 18 -40 -2z"/>
<path d="M2346 579 c-5 -11 -15 -14 -32 -11 -21 4 -25 1 -22 -14 3 -14 11 -18
32 -17 36 3 39 6 34 35 -4 18 -6 20 -12 7z"/>
<path d="M2166 572 c-3 -5 -3 -18 0 -27 5 -12 18 -15 58 -13 44 3 51 6 54 26
3 19 -1 22 -33 22 -23 0 -38 -5 -41 -15 -6 -14 -8 -13 -19 1 -8 11 -14 13 -19
6z"/>
<path d="M1113 563 c-14 -5 -18 -39 -5 -47 7 -4 42 27 42 38 0 7 -25 13 -37 9z"/>
<path d="M1450 556 c0 -9 -7 -12 -19 -9 -22 6 -33 -7 -22 -26 5 -8 17 -10 34
-5 20 4 27 13 27 30 0 13 -4 24 -10 24 -5 0 -10 -6 -10 -14z"/>
<path d="M1515 550 c-16 -17 -16 -20 -2 -26 8 -3 28 -4 43 -2 33 4 46 28 15
28 -12 0 -21 5 -21 10 0 16 -15 12 -35 -10z"/>
<path d="M1823 563 c-13 -2 -23 -11 -23 -18 0 -19 21 -30 29 -16 4 6 15 9 24
5 13 -4 17 -1 17 15 0 21 -5 22 -47 14z"/>
<path d="M1360 548 c0 -7 5 -20 10 -28 8 -12 10 -9 10 13 0 15 -4 27 -10 27
-5 0 -10 -6 -10 -12z"/>
<path d="M1633 543 c-8 -20 6 -30 18 -13 8 11 12 12 16 3 8 -20 33 -15 33 6 0
15 -7 19 -31 19 -17 -1 -33 -7 -36 -15z"/>
<path d="M1717 554 c-8 -8 3 -34 14 -34 5 0 9 9 9 20 0 19 -11 26 -23 14z"/>
<path d="M1760 546 c0 -8 5 -18 10 -21 6 -3 10 3 10 14 0 12 -4 21 -10 21 -5
0 -10 -6 -10 -14z"/>
<path d="M1884 548 c-10 -16 14 -34 27 -21 6 6 17 9 24 7 7 -3 15 1 18 9 4 11
-3 15 -29 15 -19 0 -37 -4 -40 -10z"/>
<path d="M1972 544 c4 -21 22 -23 26 -1 2 10 -3 17 -13 17 -10 0 -15 -6 -13
-16z"/>
<path d="M2040 546 c0 -24 17 -28 23 -6 3 13 0 20 -9 20 -8 0 -14 -6 -14 -14z"/>
<path d="M2080 552 c0 -15 22 -30 36 -25 24 9 16 33 -11 33 -14 0 -25 -4 -25
-8z"/>
<path d="M1160 530 c0 -11 5 -20 10 -20 6 0 10 9 10 20 0 11 -4 20 -10 20 -5
0 -10 -9 -10 -20z"/>
<path d="M1210 535 c0 -17 82 -27 92 -12 5 9 10 9 20 -1 18 -18 28 -15 28 8 0
19 -6 21 -70 19 -48 -1 -70 -6 -70 -14z"/>
<path d="M1337 432 c-25 -27 -21 -32 22 -32 26 0 41 5 45 16 4 12 1 14 -14 9
-14 -5 -20 -2 -20 9 0 21 -13 20 -33 -2z"/>
<path d="M1494 439 c-5 -8 -17 -14 -26 -14 -10 0 -19 -4 -20 -10 -2 -6 55 -10
157 -10 143 0 160 2 163 17 3 15 -4 17 -50 14 -29 -2 -65 0 -80 5 -17 4 -30 3
-34 -3 -3 -5 -16 -7 -28 -4 -11 3 -28 1 -36 -4 -9 -6 -18 -3 -26 7 -9 14 -13
14 -20 2z"/>
<path d="M1936 441 c-39 -8 -44 -28 -10 -41 20 -8 31 -7 43 3 10 9 36 13 74
11 31 -1 57 2 57 7 0 5 -6 11 -12 14 -25 8 -124 12 -152 6z"/>
<path d="M2125 441 c-3 -2 -5 -10 -5 -18 0 -15 46 -18 55 -3 4 6 12 5 24 -2
13 -8 27 -8 48 0 21 7 34 7 41 0 6 -6 12 -6 17 2 5 8 10 8 21 -1 16 -13 44 -5
44 14 0 10 -26 13 -120 13 -67 0 -123 -2 -125 -5z"/>
<path d="M657 433 c-4 -3 -7 -17 -7 -30 0 -33 24 -24 28 10 3 26 -7 35 -21 20z"/>
<path d="M810 433 c0 -8 -13 -13 -31 -13 -24 0 -30 -4 -27 -17 2 -11 11 -17
23 -15 11 1 53 2 94 2 41 0 79 5 87 11 10 8 14 8 14 0 0 -15 27 -14 33 2 4 9
8 9 15 -2 12 -17 42 -8 42 13 0 11 -12 13 -57 9 -126 -10 -168 -8 -180 7 -9
10 -12 11 -13 3z"/>
<path d="M1176 433 c-1 -1 -19 -4 -41 -6 -21 -2 -41 -9 -43 -15 -5 -16 43 -26
86 -17 20 4 54 7 75 6 29 -1 37 2 37 16 0 15 -9 18 -56 18 -31 0 -57 -1 -58
-2z"/>
<path d="M1813 424 c-10 -25 7 -34 33 -18 13 9 22 19 19 22 -11 11 -47 8 -52
-4z"/>
<path d="M618 423 c7 -3 16 -2 19 1 4 3 -2 6 -13 5 -11 0 -14 -3 -6 -6z"/>
<path d="M712 411 c4 -13 18 -16 19 -4 0 4 -5 9 -11 12 -7 2 -11 -2 -8 -8z"/>
<path d="M2311 332 c-16 -31 -8 -39 33 -34 41 5 51 32 12 32 -13 0 -26 6 -28
12 -3 8 -9 4 -17 -10z"/>
<path d="M1866 331 c-4 -6 -13 -8 -21 -5 -8 3 -20 2 -27 -2 -7 -5 -25 -7 -40
-5 -22 2 -28 -2 -28 -18 0 -19 5 -20 88 -15 110 6 132 11 132 29 0 10 -9 12
-35 8 -20 -3 -41 -1 -49 6 -9 8 -16 8 -20 2z"/>
<path d="M2130 317 c0 -20 5 -24 36 -25 28 -1 35 2 32 16 -2 11 -11 16 -26 14
-12 -2 -22 2 -22 7 0 6 -4 11 -10 11 -5 0 -10 -11 -10 -23z"/>
<path d="M2242 326 c-27 -13 -24 -30 6 -34 18 -3 22 2 22 22 0 14 -1 25 -2 25
-2 -1 -13 -6 -26 -13z"/>
<path d="M1345 312 c-27 -9 -41 -10 -43 -2 -2 5 -9 7 -15 3 -7 -4 -16 -8 -22
-8 -5 0 -11 -4 -12 -10 -2 -6 19 -10 47 -11 28 -1 52 -3 55 -6 2 -2 20 -2 40
0 25 3 35 9 35 22 0 24 -35 29 -85 12z"/>
<path d="M1687 323 c-4 -3 -7 -15 -7 -25 0 -13 7 -18 25 -18 23 0 27 5 24 28
-1 4 -6 6 -12 4 -5 -2 -13 2 -17 8 -3 5 -9 7 -13 3z"/>
<path d="M2006 322 c-3 -3 -6 -11 -6 -19 0 -9 15 -13 50 -13 38 0 50 4 50 15
0 8 -6 16 -12 16 -50 6 -77 6 -82 1z"/>
<path d="M1000 307 c0 -9 -10 -12 -31 -9 -24 4 -30 1 -27 -9 4 -11 32 -14 127
-14 121 0 140 5 141 38 0 8 -98 7 -115 -2 -18 -9 -55 -10 -60 0 -9 14 -35 11
-35 -4z"/>
<path d="M1536 305 c-3 -9 -6 -24 -6 -32 0 -13 3 -13 16 -2 9 7 34 12 60 10
35 -2 44 1 44 13 0 11 -10 16 -32 16 -18 0 -43 3 -54 6 -14 4 -23 0 -28 -11z"/>
<path d="M1467 303 c-13 -12 -7 -23 13 -23 11 0 20 7 20 15 0 15 -21 21 -33 8z"/>
<path d="M910 285 c0 -8 5 -15 10 -15 6 0 10 7 10 15 0 8 -4 15 -10 15 -5 0
-10 -7 -10 -15z"/>
<path d="M2129 203 c-5 -14 -7 -28 -5 -30 8 -8 27 8 21 17 -3 5 -1 11 5 15 5
3 10 -1 10 -9 0 -10 9 -16 25 -16 25 0 25 1 8 18 -32 33 -53 35 -64 5z"/>
<path d="M2239 204 c-11 -30 -3 -46 11 -24 10 16 13 50 5 50 -3 0 -10 -12 -16
-26z"/>
<path d="M2340 220 c0 -5 5 -10 10 -10 6 0 10 5 10 10 0 6 -4 10 -10 10 -5 0
-10 -4 -10 -10z"/>
<path d="M1887 213 c-10 -9 -8 -43 2 -43 5 0 11 11 13 25 5 24 -2 32 -15 18z"/>
<path d="M1947 213 c-4 -3 -7 -15 -7 -25 0 -28 25 -21 26 7 2 24 -6 32 -19 18z"/>
<path d="M1982 193 c-2 -25 -1 -26 14 -11 9 9 13 21 10 27 -12 19 -22 12 -24
-16z"/>
<path d="M2022 206 c1 -10 8 -17 13 -17 15 1 12 24 -3 29 -9 3 -13 -2 -10 -12z"/>
<path d="M2087 198 c-7 -25 -3 -33 12 -23 13 8 15 45 2 45 -5 0 -11 -10 -14
-22z"/>
<path d="M2280 206 c0 -21 21 -31 31 -15 14 22 11 29 -11 29 -11 0 -20 -6 -20
-14z"/>
<path d="M1061 191 c-17 -31 -13 -41 14 -41 18 0 25 5 25 20 0 11 0 23 1 28 1
17 -30 12 -40 -7z"/>
<path d="M1220 201 c0 -6 -13 -11 -30 -11 -25 0 -30 -4 -30 -25 0 -26 25 -36
32 -13 3 8 25 12 66 10 48 -2 62 1 62 12 0 18 -30 30 -44 16 -14 -14 -22 -13
-40 6 -9 8 -16 11 -16 5z"/>
<path d="M1400 201 c0 -5 -12 -11 -27 -13 -18 -2 -29 -10 -31 -21 -3 -17 0
-18 30 -12 18 4 36 13 40 19 11 16 10 36 -2 36 -5 0 -10 -4 -10 -9z"/>
<path d="M1497 203 c-17 -16 -6 -40 18 -40 14 0 25 4 25 10 0 7 4 7 12 -1 17
-17 28 -15 28 4 0 12 -7 15 -30 12 -20 -3 -30 0 -30 9 0 14 -12 17 -23 6z"/>
<path d="M1604 191 c-2 -2 -4 -10 -4 -16 0 -17 222 -15 228 3 2 6 -5 13 -15
14 -41 3 -205 3 -209 -1z"/>
<path d="M1120 175 c-20 -24 -6 -28 15 -5 10 11 13 20 8 20 -6 0 -16 -7 -23
-15z"/>
<path d="M1457 183 c-10 -9 -9 -23 2 -23 5 0 11 7 15 15 5 15 -5 20 -17 8z"/>
<path d="M2050 99 c0 -22 25 -54 33 -42 4 6 -2 22 -13 34 -14 18 -19 20 -20 8z"/>
<path d="M2155 100 c4 -6 11 -10 16 -10 6 0 19 -10 28 -22 10 -12 23 -18 29
-14 13 8 16 46 5 47 -5 0 -25 2 -46 4 -22 2 -35 0 -32 -5z"/>
<path d="M2260 81 c0 -17 5 -31 10 -31 6 0 10 11 10 24 0 14 -4 28 -10 31 -6
4 -10 -7 -10 -24z"/>
<path d="M2296 94 c-10 -27 -7 -34 19 -34 29 0 36 34 9 44 -21 8 -21 8 -28
-10z"/>
<path d="M2357 104 c-8 -8 3 -34 14 -34 5 0 9 9 9 20 0 19 -11 26 -23 14z"/>
<path d="M1406 92 c-3 -6 1 -15 9 -22 8 -7 15 -9 15 -4 0 5 5 1 11 -8 13 -24
36 -23 49 2 12 23 50 27 50 5 0 -8 3 -15 8 -16 31 -5 192 -4 192 0 -1 16 -30
42 -39 36 -6 -3 -16 -3 -23 1 -14 9 -213 8 -228 -1 -6 -4 -17 -2 -25 5 -8 6
-16 7 -19 2z"/>
<path d="M1780 70 c0 -16 5 -30 10 -30 6 0 10 14 10 30 0 17 -4 30 -10 30 -5
0 -10 -13 -10 -30z"/>
<path d="M1830 91 c0 -6 5 -13 10 -16 6 -3 10 1 10 9 0 9 -4 16 -10 16 -5 0
-10 -4 -10 -9z"/>
<path d="M1891 87 c-8 -11 -6 -18 9 -32 20 -18 20 -17 20 13 0 34 -10 41 -29
19z"/>
<path d="M1962 78 c5 -32 28 -35 28 -4 0 17 -5 26 -16 26 -10 0 -14 -7 -12
-22z"/>
<path d="M2019 100 c0 -3 -2 -15 -5 -27 -2 -13 1 -23 6 -23 16 0 24 30 11 43
-6 6 -11 9 -12 7z"/>
<path d="M2405 90 c-3 -5 -1 -18 4 -27 9 -16 10 -14 11 10 0 28 -5 34 -15 17z"/>
<path d="M1203 83 c-33 -6 -31 -43 2 -43 14 0 25 4 25 9 0 5 3 16 6 25 3 9 2
15 -2 15 -5 -1 -19 -4 -31 -6z"/>
<path d="M1340 76 c0 -9 -8 -12 -24 -9 -13 3 -26 0 -30 -5 -10 -16 17 -31 47
-25 20 4 27 11 27 29 0 13 -4 24 -10 24 -5 0 -10 -6 -10 -14z"/>
<path d="M2113 74 c-3 -8 -1 -20 6 -27 8 -8 11 -4 11 16 0 30 -7 35 -17 11z"/>
<path d="M1145 57 c-4 -10 -5 -21 -1 -24 10 -10 18 4 13 24 -4 17 -4 17 -12 0z"/>
<path d="M1250 55 c0 -8 5 -15 10 -15 6 0 10 7 10 15 0 8 -4 15 -10 15 -5 0
-10 -7 -10 -15z"/>
<path d="M1825 50 c-3 -5 3 -10 15 -10 12 0 18 5 15 10 -3 6 -10 10 -15 10 -5
0 -12 -4 -15 -10z"/>
<path d="M1405 40 c4 -6 11 -8 16 -5 14 9 11 15 -7 15 -8 0 -12 -5 -9 -10z"/>
</g>
</svg>
