<svg width="57" height="57" viewBox="0 0 57 57" fill="none" xmlns="http://www.w3.org/2000/svg">
<g clip-path="url(#clip0_735_241)">
<path d="M41.3949 38.105C40.8984 38.105 40.5778 38.1432 40.3879 38.1811V43.7837C40.5782 43.822 40.8846 43.822 41.1615 43.822C43.1749 43.8344 44.4885 42.8693 44.4885 40.8237C44.5027 39.0449 43.3064 38.105 41.3949 38.105Z" fill="#06ACAA" stroke="#06ACAA" stroke-width="0.000213334"/>
<path d="M32.7987 38.0801C32.3466 38.0801 32.0401 38.118 31.8792 38.1559V40.6844C32.0692 40.7223 32.3028 40.7354 32.6226 40.7354C33.8056 40.7354 34.5348 40.2143 34.5348 39.3377C34.5349 38.5502 33.9071 38.0801 32.7987 38.0801Z" fill="#06ACAA" stroke="#06ACAA" stroke-width="0.000213334"/>
<path d="M56.992 19.6269C56.9896 19.4618 56.9295 19.2987 56.7993 19.1698L48.8261 11.2414C48.8245 11.2392 48.8214 11.2385 48.8198 11.2365C48.7722 11.1903 48.7177 11.1522 48.659 11.1186C48.6416 11.1088 48.6234 11.0999 48.6051 11.091C48.5545 11.0671 48.5014 11.0472 48.4452 11.0327C48.431 11.0289 48.4167 11.0235 48.4017 11.0201C48.3415 11.0075 48.279 11 48.2164 11H28.6216C27.7276 11 27 11.6335 27 12.4118V45.5882C27 46.3668 27.7276 47 28.6216 47H55.3783C56.2723 47 57 46.3668 57 45.5882V19.706C56.9999 19.6794 56.9952 19.6534 56.992 19.6269ZM35.8334 41.3184C35.0748 41.9408 33.9511 42.2207 32.6375 42.2207C32.3461 42.2207 32.0826 42.2077 31.8791 42.1828V45.2442H29.6757V36.7957C30.3612 36.6944 31.3248 36.6178 32.6822 36.6178C34.0536 36.6178 35.0314 36.8466 35.6879 37.3037C36.3157 37.7359 36.7378 38.4473 36.7378 39.2855C36.7378 40.1244 36.4175 40.8358 35.8334 41.3184ZM45.2171 44.2281C44.1822 44.9774 42.6061 45.3331 40.6804 45.3331C39.5274 45.3331 38.7106 45.2697 38.1552 45.2063V36.7957C38.9725 36.6819 40.0383 36.6178 41.1616 36.6178C43.0285 36.6178 44.24 36.9101 45.189 37.5325C46.2108 38.1932 46.853 39.2476 46.853 40.7593C46.8521 42.3986 46.1664 43.5291 45.2171 44.2281ZM54.3252 38.2695H50.5451V40.2258H54.0765V41.8017H50.5451V45.2442H48.313V36.6819H54.3252V38.2695ZM28.6216 34.9706V12.4118H47.4056V19.635C47.4056 20.0246 47.7683 20.3409 48.2164 20.3409H55.3783L55.3791 34.9706H28.6216Z" fill="#06ACAA" stroke="#06ACAA" stroke-width="0.000213334"/>
<path d="M50.3186 26.1716C50.271 26.1677 49.1285 26.0769 47.3747 26.0769C46.8252 26.0769 46.2717 26.0863 45.7253 26.1042C42.2619 23.8414 39.4251 21.5769 37.9064 20.3079C37.9341 20.1681 37.9532 20.0577 37.9621 19.9728C38.1624 18.132 37.9397 16.8893 37.3025 16.2791C36.8852 15.8803 36.2724 15.7476 35.6333 15.8996C35.2365 15.9901 34.5019 16.3253 34.2667 17.0076C34.007 17.7615 34.4244 18.6766 35.521 19.7378C35.5384 19.7539 35.9106 20.0934 36.5868 20.6686C36.1473 22.493 34.9968 26.4299 34.4387 28.3204C33.1276 28.9303 32.0353 29.6649 31.1896 30.5076L31.1342 30.5628L31.0984 30.629C31.0113 30.7883 30.595 31.6151 30.9076 32.2793C31.0503 32.5812 31.3177 32.8018 31.681 32.9176L31.7784 32.9404C31.7784 32.9404 31.8662 32.957 32.0206 32.957C32.6971 32.957 34.3667 32.6475 35.2623 29.7743L35.4793 29.0463C38.6053 27.7235 42.5129 27.2968 45.3452 27.1779C46.8021 28.1185 48.2519 28.9825 49.6566 29.7477L49.7025 29.7708C49.7706 29.8012 50.3866 30.0659 51.108 30.0665C52.1389 30.0665 52.8919 29.5157 53.1722 28.5559L53.1864 28.4903C53.2648 27.9417 53.1065 27.4473 52.7288 27.0607C51.9331 26.2465 50.4517 26.1755 50.3186 26.1716ZM32.0459 31.8976C32.0396 31.8911 32.0366 31.8849 32.0334 31.878C31.9661 31.737 32.0468 31.3951 32.1656 31.1446C32.6755 30.6482 33.2876 30.1926 33.9939 29.7824C33.3061 31.7208 32.3058 31.8884 32.0459 31.8976ZM36.4131 19.0187C35.3568 17.995 35.3727 17.4875 35.4295 17.3166C35.5227 17.0311 35.9436 16.9232 35.9472 16.9222C36.1592 16.872 36.2879 16.8819 36.4025 16.9913C36.6615 17.2391 36.8841 17.9869 36.7962 19.3585C36.5468 19.1404 36.4131 19.0187 36.4131 19.0187ZM35.8673 27.7358L35.8856 27.6752L35.8832 27.6759C36.4121 25.8724 37.1748 23.2317 37.6134 21.5354L37.6293 21.5486L37.6308 21.5405C39.0498 22.7037 41.2254 24.4052 43.8304 26.1749L43.8012 26.176L43.8443 26.2043C41.3902 26.3847 38.4591 26.8059 35.8673 27.7358ZM51.9838 28.3274C51.7969 28.9252 51.4375 29.0069 51.1081 29.0069C50.7256 29.0069 50.3575 28.8684 50.2735 28.8349C49.317 28.3129 48.3384 27.7442 47.3509 27.1357C47.3588 27.1357 47.3659 27.1357 47.3747 27.1357C49.0675 27.1357 50.1951 27.2252 50.2394 27.2279C50.5221 27.2371 51.4168 27.3521 51.8024 27.7467C51.9536 27.9014 52.0115 28.0863 51.9838 28.3274Z" fill="#06ACAA" stroke="#06ACAA" stroke-width="0.000213334"/>
</g>
<defs>
<clipPath id="clip0_735_241">
<rect width="57" height="57" fill="white"/>
</clipPath>
</defs>
</svg>
