<?xml version="1.0" standalone="no"?>
<!DOCTYPE svg PUBLIC "-//W3C//DTD SVG 20010904//EN"
 "http://www.w3.org/TR/2001/REC-SVG-20010904/DTD/svg10.dtd">
<svg version="1.0" xmlns="http://www.w3.org/2000/svg"
 width="82.000000pt" height="148.000000pt" viewBox="0 0 82.000000 148.000000"
 preserveAspectRatio="xMidYMid meet">

<g transform="translate(0.000000,148.000000) scale(0.100000,-0.100000)"
fill="#343D70" stroke="none">
<path d="M223 1402 c-89 -25 -161 -47 -159 -49 2 -2 41 -14 87 -26 77 -21 86
-21 114 -7 43 21 248 21 290 -1 28 -14 36 -13 114 8 46 12 85 24 87 26 6 6
-300 91 -336 93 -19 1 -108 -18 -197 -44z"/>
<path d="M340 1324 c-79 -14 -97 -24 -104 -55 -3 -17 -6 -51 -6 -75 l0 -44
-105 0 -105 0 2 -272 c1 -150 4 -218 5 -150 l4 122 379 0 379 0 4 -117 c1 -65
4 2 5 150 l2 267 -282 0 c-200 0 -279 3 -271 11 6 6 40 15 77 22 64 11 66 12
72 44 6 34 23 55 25 31 1 -7 2 -17 3 -23 3 -27 26 -43 76 -53 30 -6 63 -14 73
-17 15 -6 17 0 17 59 l0 67 -36 15 c-36 15 -168 26 -214 18z m450 -324 l0
-140 -380 0 -380 0 0 140 0 140 380 0 380 0 0 -140z"/>
<path d="M100 1079 c-14 -26 -3 -40 14 -17 9 12 27 17 70 17 32 0 56 -3 53 -6
-3 -3 -28 -5 -56 -5 -28 1 -54 -4 -57 -10 -5 -8 -1 -9 10 -5 10 4 15 3 11 -3
-3 -6 -16 -10 -28 -10 -20 0 -22 -4 -18 -46 5 -67 33 -96 91 -93 44 2 70 13
70 30 0 5 -7 6 -15 3 -20 -8 -19 6 3 22 16 13 16 14 0 8 -23 -8 -23 5 0 22 16
13 16 13 0 14 -10 0 -18 4 -18 9 0 5 8 12 18 14 16 4 16 5 0 6 -22 1 -24 21
-3 21 16 0 19 9 9 34 -5 12 -21 16 -75 16 -59 0 -70 -3 -79 -21z m78 -50 c-3
-8 -7 -3 -11 10 -4 17 -3 21 5 13 5 -5 8 -16 6 -23z m19 -1 c-3 -8 -6 -5 -6 6
-1 11 2 17 5 13 3 -3 4 -12 1 -19z m-42 -107 c-6 -5 -25 10 -25 20 0 5 6 4 14
-3 8 -7 12 -15 11 -17z"/>
<path d="M337 1093 c-4 -3 -7 -16 -7 -27 1 -20 2 -20 14 -3 8 10 25 16 42 16
27 -2 27 -2 4 -6 -37 -7 -48 -23 -14 -20 21 1 29 -3 30 -16 2 -13 1 -14 -3 -1
-3 9 -11 13 -20 10 -8 -3 -23 -6 -34 -6 -17 0 -19 -8 -19 -69 l0 -68 53 -2
c68 -2 107 7 107 24 0 9 -6 12 -15 9 -8 -4 -15 -1 -15 5 0 6 7 11 15 11 8 0
15 4 15 10 0 5 -7 7 -15 4 -9 -4 -15 0 -15 10 0 10 6 13 15 10 8 -4 15 -1 15
5 0 6 -7 11 -15 11 -21 0 -19 18 3 23 16 4 16 5 0 6 -22 1 -24 21 -3 21 16 0
19 9 9 34 -5 12 -21 16 -73 16 -37 0 -71 -3 -74 -7z m126 -20 c-7 -2 -21 -2
-30 0 -10 3 -4 5 12 5 17 0 24 -2 18 -5z m-30 -26 c3 -8 2 -20 -3 -26 -5 -9
-7 -4 -7 13 0 29 2 32 10 13z m-79 -123 c3 -8 2 -12 -4 -9 -6 3 -10 10 -10 16
0 14 7 11 14 -7z m31 -2 c-3 -3 -11 0 -18 7 -9 10 -8 11 6 5 10 -3 15 -9 12
-12z"/>
<path d="M566 1084 c-11 -28 -7 -31 31 -30 29 1 38 -3 39 -17 2 -13 1 -14 -3
-1 -3 9 -11 13 -20 10 -8 -3 -23 -6 -34 -6 -17 0 -19 -8 -19 -70 0 -59 3 -70
17 -70 13 0 14 3 5 12 -16 16 -15 28 3 28 8 0 15 7 15 16 0 8 5 12 10 9 8 -5
8 -11 0 -20 -8 -10 -7 -14 2 -18 10 -4 10 -6 1 -6 -7 -1 -13 -5 -13 -11 0 -5
20 -10 45 -10 l45 0 0 84 c0 72 -3 85 -17 89 -14 4 -12 5 5 6 13 1 22 -5 22
-14 0 -8 5 -15 10 -15 11 0 13 11 4 34 -9 23 -139 23 -148 0z m74 -8 c0 -2
-11 -6 -25 -8 -14 -3 -25 -1 -25 3 0 5 11 9 25 9 14 0 25 -2 25 -4z m23 -51
c-3 -9 -8 -14 -10 -11 -3 3 -2 9 2 15 9 16 15 13 8 -4z m-4 -97 c-5 -10 -14
-18 -20 -18 -6 0 -4 7 5 15 8 9 13 23 10 33 -5 14 -4 14 4 3 7 -10 7 -21 1
-33z"/>
<path d="M700 990 c0 -5 5 -10 10 -10 6 0 10 5 10 10 0 6 -4 10 -10 10 -5 0
-10 -4 -10 -10z"/>
<path d="M705 960 c-3 -5 -1 -10 4 -10 6 0 11 5 11 10 0 6 -2 10 -4 10 -3 0
-8 -4 -11 -10z"/>
<path d="M706 931 c-4 -7 -5 -15 -2 -18 9 -9 19 4 14 18 -4 11 -6 11 -12 0z"/>
<path d="M90 915 c0 -8 7 -15 15 -15 9 0 12 6 9 15 -4 8 -10 15 -15 15 -5 0
-9 -7 -9 -15z"/>
<path d="M396 785 c-3 -8 -16 -15 -28 -15 -22 -1 -22 -1 -4 -15 12 -9 17 -22
13 -35 -6 -22 3 -26 21 -8 9 9 15 9 24 0 18 -18 27 -14 21 8 -4 13 1 26 13 35
18 14 17 14 -8 15 -18 0 -28 5 -28 15 0 8 -4 15 -9 15 -5 0 -11 -7 -15 -15z"/>
<path d="M368 631 c-25 -22 -30 -33 -22 -41 9 -9 20 -4 43 19 36 35 59 39 91
13 20 -16 21 -21 9 -40 -12 -20 -23 -22 -134 -24 l-120 -3 25 -23 c14 -13 44
-28 68 -34 41 -10 42 -11 22 -25 -21 -15 -27 -57 -10 -68 12 -7 -21 -36 -67
-60 -15 -8 -21 -15 -13 -15 8 0 35 14 60 30 51 34 80 38 80 13 0 -23 -9 -35
-40 -56 -24 -17 -23 -17 47 -17 l71 0 -29 29 c-38 38 -37 56 5 76 56 27 59 71
5 63 -45 -7 -17 18 36 31 24 6 56 22 71 36 l27 25 -42 0 c-39 0 -41 1 -31 20
8 14 8 26 0 40 -26 49 -103 55 -152 11z m12 -206 c-7 -8 -16 -15 -21 -15 -15
0 -10 22 9 43 15 17 17 17 20 3 2 -9 -2 -23 -8 -31z m85 5 c-18 -20 -45 -27
-45 -12 0 15 24 32 44 32 18 0 19 -1 1 -20z"/>
<path d="M32 570 c0 -19 2 -27 5 -17 2 9 2 25 0 35 -3 9 -5 1 -5 -18z"/>
<path d="M781 579 c-2 -52 -41 -155 -75 -204 -19 -27 -33 -51 -31 -55 2 -4 -1
-7 -8 -7 -12 0 -124 -73 -112 -73 3 0 14 4 24 10 16 8 18 5 17 -30 -1 -54 12
-64 53 -39 27 16 32 24 27 45 -6 23 -5 24 14 14 16 -9 25 -8 38 1 9 7 4 -1
-11 -18 -112 -122 -368 -149 -539 -56 -51 28 -108 84 -108 106 1 7 8 0 16 -15
17 -32 18 -32 45 -17 18 9 19 7 13 -15 -5 -21 0 -29 27 -45 41 -25 54 -15 53
38 l-1 39 46 -22 c37 -17 65 -21 141 -21 62 0 102 5 115 13 l20 14 -20 -7
c-11 -4 -52 -10 -91 -12 -87 -7 -162 13 -232 61 -27 19 -54 32 -58 28 -5 -4
-6 -3 -2 2 4 4 -8 30 -27 57 -18 27 -39 65 -45 85 -7 19 -14 33 -17 31 -6 -7
31 -91 57 -126 25 -36 25 -40 1 -34 -12 3 -25 -4 -35 -19 -42 -60 -66 -100
-66 -113 0 -7 19 -30 43 -50 23 -20 35 -34 26 -30 -16 6 -57 -30 -46 -42 4 -3
18 -1 31 6 17 10 29 10 44 2 11 -6 27 -11 34 -11 7 1 1 8 -14 16 -49 26 -30
23 42 -7 146 -62 334 -62 480 0 72 30 91 33 43 7 -16 -8 -22 -15 -15 -16 7 0
23 5 34 11 15 8 27 8 44 -2 13 -7 27 -9 31 -6 11 12 -30 48 -46 42 -9 -4 3 10
27 30 23 20 42 44 41 53 0 9 -17 42 -38 72 -27 40 -43 55 -59 54 -12 0 -22 1
-22 4 0 2 15 29 34 60 39 63 70 160 63 194 -4 21 -4 20 -6 -3z m-624 -311 c-3
-7 -5 -2 -5 12 0 14 2 19 5 13 2 -7 2 -19 0 -25z m510 0 c-3 -7 -5 -2 -5 12 0
14 2 19 5 13 2 -7 2 -19 0 -25z m127 -56 c2 -4 -5 -9 -17 -9 -17 -2 -19 0 -7
7 18 12 18 12 24 2z m-733 -25 c-10 -9 -11 -8 -5 6 3 10 9 15 12 12 3 -3 0
-11 -7 -18z m29 -7 c0 -5 -5 -10 -11 -10 -5 0 -7 5 -4 10 3 6 8 10 11 10 2 0
4 -4 4 -10z m644 -21 c-3 -5 -10 -7 -15 -3 -5 3 -7 10 -3 15 3 5 10 7 15 3 5
-3 7 -10 3 -15z m-604 7 c0 -2 -8 -10 -17 -17 -16 -13 -17 -12 -4 4 13 16 21
21 21 13z m578 -31 c-3 -3 -9 2 -12 12 -6 14 -5 15 5 6 7 -7 10 -15 7 -18z
m-528 -4 c0 -13 -29 -8 -34 5 -3 7 2 10 15 7 10 -3 19 -9 19 -12z m500 -7
c-12 -14 -40 -8 -40 8 0 5 5 6 10 3 6 -3 10 -2 10 4 0 6 7 8 15 5 12 -5 13
-10 5 -20z m-470 -19 c0 -8 -6 -12 -14 -9 -8 3 -12 12 -9 20 6 17 23 9 23 -11z
m25 6 c3 -5 2 -12 -3 -15 -5 -3 -9 1 -9 9 0 17 3 19 12 6z m358 -22 c-5 -5
-17 -3 -29 6 -18 16 -18 16 4 10 14 -4 22 -2 23 7 0 11 2 10 6 0 3 -8 1 -18
-4 -23z m-316 -11 c-3 -8 -6 -5 -6 6 -1 11 2 17 5 13 3 -3 4 -12 1 -19z m254
-5 c-12 -20 -14 -14 -5 12 4 9 9 14 11 11 3 -2 0 -13 -6 -23z m-194 -5 c-3 -8
-6 -5 -6 6 -1 11 2 17 5 13 3 -3 4 -12 1 -19z m28 12 c3 -5 1 -10 -4 -10 -6 0
-11 5 -11 10 0 6 2 10 4 10 3 0 8 -4 11 -10z m65 -11 c8 -11 12 -10 24 6 14
18 15 18 16 3 0 -10 -3 -19 -7 -19 -41 -7 -51 -5 -46 10 3 12 0 11 -11 -3 -16
-20 -16 -19 -16 1 0 24 26 25 40 2z m68 -4 c-3 -3 -9 2 -12 12 -6 14 -5 15 5
6 7 -7 10 -15 7 -18z m-178 5 c0 -5 -5 -10 -11 -10 -5 0 -7 5 -4 10 3 6 8 10
11 10 2 0 4 -4 4 -10z"/>
<path d="M41 514 c0 -11 3 -14 6 -6 3 7 2 16 -1 19 -3 4 -6 -2 -5 -13z"/>
<path d="M576 489 c-30 -23 -33 -45 -10 -77 16 -23 77 -32 89 -12 3 5 0 7 -9
4 -23 -9 -56 14 -56 39 0 28 18 47 45 47 16 0 17 2 5 10 -22 14 -34 12 -64
-11z"/>
<path d="M151 474 c-15 -33 -7 -58 23 -72 17 -7 30 -7 47 2 26 13 34 35 25 72
-5 20 -13 24 -45 24 -31 0 -40 -5 -50 -26z m66 -1 c-4 -3 0 -14 8 -23 13 -14
12 -16 -9 -15 -35 0 -44 14 -22 31 20 14 35 19 23 7z"/>
<path d="M61 67 c-8 -11 0 -19 38 -37 46 -21 81 -22 81 -2 0 8 -83 52 -99 52
-5 0 -14 -6 -20 -13z"/>
<path d="M683 57 c-24 -11 -43 -25 -43 -29 0 -20 35 -19 81 2 38 18 46 26 38
37 -15 17 -26 16 -76 -10z"/>
</g>
</svg>
